<?xml version="1.0" encoding="UTF-8"?>
<svg id="_レイヤー_2" data-name="レイヤー 2" xmlns="http://www.w3.org/2000/svg" viewBox="0 0 372.39 288.96">
  <defs>
    <style>
      .cls-1 {
        fill: #111;
      }
    </style>
  </defs>
  <g id="_レイヤー_1-2" data-name="レイヤー 1">
    <g>
      <polygon class="cls-1" points="247.89 266.37 204.16 175.65 251.49 264.54 247.89 266.37"/>
      <polygon class="cls-1" points="239.6 280.54 204.16 186.29 241.81 279.7 239.6 280.54"/>
      <polygon class="cls-1" points="197.69 287.07 191.9 186.52 201.71 286.76 197.69 287.07"/>
      <polygon class="cls-1" points="277.95 277.2 222.22 193.31 281.26 274.91 277.95 277.2"/>
      <polygon class="cls-1" points="296.02 274.3 232.5 196.14 299.1 271.69 296.02 274.3"/>
      <polygon class="cls-1" points="306.63 247.71 230.79 181.44 307.7 246.43 306.63 247.71"/>
      <polygon class="cls-1" points="334.58 252.69 253.7 192.68 337.27 248.91 334.58 252.69"/>
      <polygon class="cls-1" points="353.48 219.45 261.7 178 354.21 217.77 353.48 219.45"/>
      <polygon class="cls-1" points="353.75 235.14 265.85 185.88 355.68 231.38 353.75 235.14"/>
      <polygon class="cls-1" points="350.15 198.67 254.56 167.01 350.47 197.69 350.15 198.67"/>
      <polygon class="cls-1" points="345.34 189.98 248.6 161.97 346.07 187.27 345.34 189.98"/>
      <polygon class="cls-1" points="368.23 172.51 268.71 157.07 368.55 170.15 368.23 172.51"/>
      <polygon class="cls-1" points="343.72 121.08 244.08 135.86 343.26 118.45 343.72 121.08"/>
      <polygon class="cls-1" points="348.73 110.64 250.18 131.42 348.42 109.32 348.73 110.64"/>
      <polygon class="cls-1" points="372.39 141.24 271.7 142.89 372.32 139.24 372.39 141.24"/>
      <polygon class="cls-1" points="356.17 151.25 255.53 147.35 356.2 149.25 356.17 151.25"/>
      <polygon class="cls-1" points="319.61 53.64 237.41 111.8 318.37 51.87 319.61 53.64"/>
      <polygon class="cls-1" points="336.78 53.87 251.33 107.14 335.98 52.58 336.78 53.87"/>
      <polygon class="cls-1" points="350.03 71.09 258.67 113.43 348.87 68.62 350.03 71.09"/>
      <polygon class="cls-1" points="372.13 89.06 275.74 118.27 371.28 86.45 372.13 89.06"/>
      <polygon class="cls-1" points="304.83 29.46 233.16 100.22 301.94 26.65 304.83 29.46"/>
      <polygon class="cls-1" points="285.83 20.53 224.19 100.15 284.08 19.18 285.83 20.53"/>
      <polygon class="cls-1" points="257.09 14.87 209.59 103.67 253.5 13.04 257.09 14.87"/>
      <polygon class="cls-1" points="242.13 17.66 202.62 110.29 237 15.59 242.13 17.66"/>
      <polygon class="cls-1" points="203.31 .35 192.53 100.48 199.3 0 203.31 .35"/>
      <polygon class="cls-1" points="130.15 22.17 172.68 113.46 127.84 23.31 130.15 22.17"/>
      <polygon class="cls-1" points="153.84 43.95 172.27 102.14 150.56 45.19 153.84 43.95"/>
      <polygon class="cls-1" points="167.84 2.71 181.46 102.5 163.85 3.33 167.84 2.71"/>
      <polygon class="cls-1" points="79.46 33.79 149.24 106.42 76.61 36.65 79.46 33.79"/>
      <polygon class="cls-1" points="87.89 20.41 150.22 99.52 86.24 21.76 87.89 20.41"/>
      <polygon class="cls-1" points="50.03 29.12 126.27 94.92 47.46 32.23 50.03 29.12"/>
      <polygon class="cls-1" points="45.97 44.31 127.33 103.68 44.9 45.85 45.97 44.31"/>
      <polygon class="cls-1" points="27.04 86.86 127.52 123.61 26.25 89.03 27.04 86.86"/>
      <polygon class="cls-1" points="24.2 76.33 122.69 118.1 23.64 77.61 24.2 76.33"/>
      <polygon class="cls-1" points="20.68 50.99 107.9 101.35 18.74 54.52 20.68 50.99"/>
      <polygon class="cls-1" points="30.5 157.31 130.99 150.54 30.69 159.5 30.5 157.31"/>
      <polygon class="cls-1" points="16.68 149.91 117.36 147.88 16.71 150.93 16.68 149.91"/>
      <polygon class="cls-1" points="11.36 182.62 110.11 162.86 11.96 185.36 11.36 182.62"/>
      <polygon class="cls-1" points="18.29 121.44 117.85 136.63 17.94 124.13 18.29 121.44"/>
      <polygon class="cls-1" points="2.77 100.03 100.32 125.08 1.85 103.95 2.77 100.03"/>
      <polygon class="cls-1" points="46.57 227.79 133.86 177.61 47.67 229.7 46.57 227.79"/>
      <polygon class="cls-1" points="20.49 230.32 110.36 184.91 21.33 231.99 20.49 230.32"/>
      <polygon class="cls-1" points="21.43 208.4 115.66 172.89 22.62 211.55 21.43 208.4"/>
      <polygon class="cls-1" points="0 199.29 96.9 171.91 .51 201.09 0 199.29"/>
      <polygon class="cls-1" points="102.22 265.84 161.63 184.52 105.53 268.15 102.22 265.84"/>
      <polygon class="cls-1" points="113.23 278.97 162.96 191.42 115.15 280.06 113.23 278.97"/>
      <polygon class="cls-1" points="139.71 287.69 173.41 192.78 143.53 288.96 139.71 287.69"/>
      <polygon class="cls-1" points="176.39 277.14 185.75 176.8 180.81 277.39 176.39 277.14"/>
      <polygon class="cls-1" points="69.18 257.08 143.44 189.05 71.96 259.99 69.18 257.08"/>
      <polygon class="cls-1" points="39.39 256.22 120.55 196.61 40.88 258.23 39.39 256.22"/>
    </g>
  </g>
</svg>